<svg height="512pt" viewBox="0 -79 512.00045 512" width="512pt" xmlns="http://www.w3.org/2000/svg"><path d="m194.207031 0v141.242188h-194.207031v-123.585938c-.015625-2.019531.34375-4.027344 1.058594-5.914062 2.191406-6.21875 7.679687-10.683594 14.210937-11.566407.792969-.1015622 1.589844-.160156 2.386719-.175781zm0 0" fill="#285680"/><path d="m194.207031 0v141.242188h-194.207031v-123.585938c.0273438-9.738281 7.917969-17.6289062 17.65625-17.65625zm0 0" fill="#285680"/><path d="m512 17.65625v317.792969c-.027344 9.738281-7.914062 17.625-17.65625 17.652343h-476.6875c-9.738281-.027343-17.625-7.914062-17.65625-17.652343v-194.207031h194.207031v-141.242188h300.136719c9.742188.0273438 17.628906 7.917969 17.65625 17.65625zm0 0" fill="#285680"/><path d="m194.207031 119.4375v21.804688h-30.011719l-164.195312-119.4375v-4.148438c.0273438-9.738281 7.917969-17.6289062 17.65625-17.65625h12.359375zm0 0" fill="#ecf0f1"/><path d="m194.207031 0v21.804688l-67.089843 48.816406-30.011719 21.804687-67.089844 48.816407h-30.015625v-21.804688l67.089844-48.816406 30.015625-21.804688 67.089843-48.816406zm0 0" fill="#ecf0f1"/><path d="m194.207031 52.964844v35.308594h-79.449219v52.96875h-35.308593v-52.96875h-79.449219v-35.308594h79.449219v-52.964844h35.308593v52.964844zm0 0" fill="#ecf0f1"/><path d="m194.207031 130.296875v10.945313h-15.007812l-63.027344-45.816407c-.535156-.371093-1.007813-.816406-1.414063-1.324219v-5.824218h21.628907zm0 0" fill="#c03a2b"/><path d="m79.449219 47.140625v5.824219h-21.628907l-53.933593-39.195313-2.828125-2.027343c2.191406-6.21875 7.679687-10.683594 14.214844-11.566407l1.324218.882813 61.4375 44.757812c.535156.367188 1.011719.816406 1.414063 1.324219zm0 0" fill="#c03a2b"/><path d="m79.449219 88.273438v5.828124c-.402344.507813-.878907.953126-1.410157 1.324219l-63.03125 45.816407h-15.007812v-10.945313l57.820312-42.019531h21.628907zm0 0" fill="#c03a2b"/><path d="m194.207031 0v10.945312l-57.820312 42.019532h-21.628907v-5.824219c.402344-.507813.878907-.957031 1.414063-1.324219l63.027344-45.816406zm0 0" fill="#c03a2b"/><g fill="#ecf0f1"><path d="m104.574219 176.550781 12.082031 30.625 31.480469-9.640625-16.402344 28.539063 27.164063 18.601562-32.546876 4.96875 2.398438 32.835938-24.175781-22.339844-24.179688 22.339844 2.390625-32.835938-32.546875-4.96875 27.171875-18.601562-16.410156-28.539063 31.476562 9.640625zm0 0"/><path d="m392.828125 17.65625 6.878906 17.414062 17.902344-5.480468-9.332031 16.234375 15.449218 10.574219-18.511718 2.824218 1.367187 18.671875-13.753906-12.703125-13.753906 12.703125 1.371093-18.671875-18.515624-2.824218 15.449218-10.574219-9.328125-16.234375 17.902344 5.480468zm0 0"/><path d="m348.691406 88.273438 6.875 17.417968 17.902344-5.480468-9.332031 16.234374 15.449219 10.574219-18.511719 2.824219 1.371093 18.671875-13.753906-12.703125-13.753906 12.703125 1.367188-18.671875-18.511719-2.824219 15.449219-10.574219-9.332032-16.234374 17.902344 5.480468zm0 0"/><path d="m454.621094 72.175781 6.878906 17.40625 17.902344-5.480469-9.332032 16.234376 15.449219 10.574218-18.511719 2.832032 1.367188 18.671874-13.753906-12.703124-13.753906 12.703124 1.371093-18.671874-18.511719-2.832032 15.445313-10.574218-9.328125-16.234376 17.902344 5.480469zm0 0"/><path d="m384 204.589844 6.878906 17.40625 17.902344-5.480469-9.332031 16.234375 15.449219 10.574219-18.511719 2.832031 1.367187 18.671875-13.753906-12.703125-13.753906 12.703125 1.371094-18.671875-18.511719-2.832031 15.445312-10.574219-9.328125-16.234375 17.902344 5.480469zm0 0"/></g><path d="m0 61.792969h194.207031v17.65625h-194.207031zm0 0" fill="#c03a2b"/><path d="m88.277344 0h17.652344v141.242188h-17.652344zm0 0" fill="#c03a2b"/><path d="m440.019531 150.066406 5.730469 11.628906 12.835938 1.863282-9.289063 9.046875 2.191406 12.773437-11.46875-6.027344-11.476562 6.027344 2.191406-12.773437-9.277344-9.046875 12.824219-1.863282zm0 0" fill="#ecf0f1"/></svg>