<svg height="512pt" viewBox="0 -79 512 512" width="512pt" xmlns="http://www.w3.org/2000/svg"><path d="m397.242188 353.105469h97.101562c9.75 0 17.65625-7.90625 17.65625-17.65625v-317.792969c0-9.753906-7.90625-17.65625-17.65625-17.65625h-476.6875c-9.753906 0-17.65625 7.90625-17.65625 17.65625v317.792969c0 9.75 7.902344 17.652343 17.65625 17.652343h379.585938zm0 0" fill="#c03a2b"/><path d="m344.71875 291.3125h167.28125v-229.519531h-512v229.519531zm0 0" fill="#f0c419"/><path d="m123.585938 158.898438h35.308593v35.308593h-35.308593zm0 0" fill="#fff"/><path d="m88.277344 158.898438h35.308594v35.308593h-35.308594zm0 0" fill="#d75e72"/><path d="m158.898438 194.207031v17.65625c.007812 7.027344-2.78125 13.765625-7.746094 18.734375-4.96875 4.96875-11.710938 7.757813-18.738282 7.746094h-17.652343c-7.027344.007812-13.769531-2.777344-18.738281-7.746094s-7.753907-11.710937-7.746094-18.734375v-17.65625zm0 0" fill="#f0c419"/><path d="m158.898438 194.207031v17.65625c0 14.625-5.929688 26.480469-13.242188 26.480469h-22.070312v-44.136719zm0 0" fill="#d75e72"/><path d="m123.585938 141.242188v17.65625h-35.308594c-4.871094-.015626-8.8125-3.960938-8.828125-8.828126v-8.828124c.027343-9.738282 7.914062-17.628907 17.652343-17.65625h8.828126c9.742187.023437 17.632812 7.914062 17.65625 17.65625zm0 0" fill="#f0c419"/><path d="m167.722656 141.242188v8.828124c-.011718 4.867188-3.957031 8.8125-8.828125 8.828126h-35.308593v-17.65625c.023437-9.742188 7.914062-17.632813 17.65625-17.65625h8.828124c9.738282.027343 17.625 7.917968 17.652344 17.65625zm0 0" fill="#f0c419"/><path d="m61.792969 247.171875h-17.65625c-4.875 0-8.828125-3.949219-8.828125-8.828125 0-4.875 3.953125-8.828125 8.828125-8.828125v-70.621094c0-4.875 3.953125-8.828125 8.828125-8.828125 4.878906 0 8.828125 3.953125 8.828125 8.828125v70.621094c4.875 0 8.828125 3.953125 8.828125 8.828125 0 4.878906-3.953125 8.828125-8.828125 8.828125zm0 0" fill="#fff"/><path d="m203.035156 247.171875h-17.65625c-4.875 0-8.828125-3.949219-8.828125-8.828125 0-4.875 3.953125-8.828125 8.828125-8.828125v-70.621094c0-4.875 3.953125-8.828125 8.828125-8.828125s8.828125 3.953125 8.828125 8.828125v70.621094c4.875 0 8.828125 3.953125 8.828125 8.828125 0 4.878906-3.953125 8.828125-8.828125 8.828125zm0 0" fill="#fff"/><path d="m150.070312 114.757812h-8.828124c-3.015626.03125-6.003907.582032-8.828126 1.628907v-10.453125c0-4.875-3.953124-8.828125-8.828124-8.828125s-8.828126 3.949219-8.828126 8.828125v10.453125c-2.828124-1.046875-5.8125-1.597657-8.828124-1.628907h-8.828126c-14.621093.015626-26.46875 11.863282-26.484374 26.484376v8.828124c.019531 6.277344 3.386718 12.070313 8.828124 15.199219v46.59375c.023438 19.492188 15.820313 35.289063 35.3125 35.308594h17.652344c19.492188-.019531 35.289063-15.816406 35.3125-35.308594v-46.59375c5.441406-3.128906 8.804688-8.921875 8.828125-15.199219v-8.828124c-.015625-14.621094-11.863281-26.46875-26.480469-26.484376zm-8.828124 17.65625h8.828124c4.871094.003907 8.820313 3.953126 8.828126 8.828126v8.828124h-26.484376v-8.828124c.003907-4.875 3.953126-8.824219 8.828126-8.828126zm8.828124 52.964844h-17.65625v-17.652344h17.65625zm-35.3125 0h-17.65625v-17.652344h17.65625zm-26.480468-44.136718c.003906-4.875 3.953125-8.824219 8.828125-8.828126h8.828125c4.871094.003907 8.820312 3.953126 8.828125 8.828126v8.828124h-26.484375zm8.824218 70.621093v-8.828125h17.65625v26.480469c-9.746093-.007813-17.644531-7.90625-17.65625-17.652344zm35.3125 17.65625v-26.484375h17.65625v8.828125c-.011718 9.746094-7.910156 17.644531-17.65625 17.65625zm0 0" fill="#c03a2b"/></svg>