<svg height="511pt" viewBox="1 -79 511.999 511" width="511pt" xmlns="http://www.w3.org/2000/svg"><path d="m397.242188 353.601562h97.101562c9.75 0 17.65625-7.902343 17.65625-17.652343v-317.792969c0-9.753906-7.90625-17.65625-17.65625-17.65625h-476.6875c-9.753906 0-17.65625 7.90625-17.65625 17.65625v317.792969c0 9.75 7.902344 17.652343 17.65625 17.652343zm0 0" fill="#e6e7e8"/><path d="m326.179688 160.015625c-4.277344-38.132813-38.105469-65.949219-76.34375-62.777344-38.238282 3.167969-67.023438 36.175781-64.964844 74.488281 2.0625 38.316407 34.21875 68.046876 72.578125 67.097657s69.007812-32.230469 69.171875-70.601563c0-2.734375-.175782-5.472656-.441406-8.207031zm0 0" fill="#c03a2b"/><path d="m326.621094 168.222656c0 39.003906-31.617188 70.621094-70.621094 70.621094s-70.621094-31.617188-70.621094-70.621094l3.707032-3.707031c8.378906-8.390625 19.746093-13.109375 31.605468-13.109375 11.855469 0 23.226563 4.714844 31.601563 13.109375l3.707031 3.707031c8.992188 8.964844 21.367188 13.691406 34.042969 13s24.464843-6.730468 32.429687-16.621094l3.707032-4.589843c.265624 2.738281.441406 5.476562.441406 8.210937zm0 0" fill="#285680"/><g fill="#2c2f38"><path d="m60.699219 111.929688c-3.191407 0-6.132813-1.726563-7.691407-4.507813-1.5625-2.78125-1.5-6.1875.160157-8.914063l27.570312-45.222656c2.539063-4.152344 7.964844-5.464844 12.125-2.929687 4.15625 2.535156 5.476563 7.957031 2.953125 12.117187l-27.570312 45.226563c-1.601563 2.632812-4.464844 4.234375-7.546875 4.230469zm0 0"/><path d="m83.308594 125.714844c-3.1875 0-6.128906-1.726563-7.691406-4.507813-1.558594-2.78125-1.5-6.191406.164062-8.914062l27.566406-45.222657c2.542969-4.152343 7.96875-5.464843 12.125-2.929687 4.160156 2.535156 5.480469 7.957031 2.953125 12.117187l-27.566406 45.226563c-1.605469 2.632813-4.464844 4.234375-7.550781 4.230469zm0 0"/><path d="m105.921875 139.5c-3.191406-.003906-6.132813-1.726562-7.691406-4.507812-1.5625-2.78125-1.5-6.191407.160156-8.914063l27.570313-45.226563c2.542968-4.152343 7.96875-5.460937 12.125-2.925781 4.15625 2.53125 5.480468 7.953125 2.953124 12.117188l-27.570312 45.222656c-1.601562 2.632813-4.464844 4.238281-7.546875 4.234375zm0 0"/><path d="m88.285156 305.050781c-3.082031.003907-5.945312-1.597656-7.546875-4.230469l-27.570312-45.226562c-1.648438-2.691406-1.734375-6.0625-.222657-8.835938 1.515626-2.773437 4.390626-4.527343 7.546876-4.597656 3.160156-.074218 6.113281 1.542969 7.753906 4.246094l27.570312 45.222656c1.660156 2.722656 1.722656 6.132813.160156 8.914063s-4.5 4.507812-7.691406 4.507812zm0 0"/><path d="m110.898438 291.265625c-3.085938.007813-5.945313-1.597656-7.550782-4.230469l-27.566406-45.226562c-2.511719-4.160156-1.183594-9.566406 2.964844-12.09375 4.148437-2.53125 9.5625-1.230469 12.109375 2.90625l27.570312 45.222656c1.660157 2.726562 1.722657 6.132812.164063 8.914062-1.5625 2.785157-4.503906 4.507813-7.691406 4.507813zm0 0"/><path d="m133.507812 277.484375c-3.082031.003906-5.945312-1.601563-7.546874-4.234375l-27.570313-45.222656c-1.648437-2.695313-1.734375-6.066406-.21875-8.835938 1.511719-2.773437 4.386719-4.527344 7.546875-4.601562 3.15625-.074219 6.109375 1.546875 7.75 4.246094l27.570312 45.222656c1.660157 2.726562 1.722657 6.132812.160157 8.914062-1.558594 2.785156-4.5 4.507813-7.691407 4.511719zm0 0"/><path d="m451.300781 111.929688c-3.082031.003906-5.941406-1.597657-7.546875-4.230469l-27.570312-45.226563c-1.648438-2.691406-1.730469-6.0625-.21875-8.835937 1.511718-2.773438 4.390625-4.527344 7.546875-4.597657 3.15625-.074218 6.113281 1.542969 7.75 4.246094l27.570312 45.222656c1.660157 2.722657 1.722657 6.132813.160157 8.914063-1.558594 2.78125-4.5 4.507813-7.691407 4.507813zm0 0"/><path d="m428.691406 125.714844c-3.085937.003906-5.945312-1.597656-7.550781-4.230469l-27.566406-45.226563c-2.527344-4.164062-1.207031-9.585937 2.953125-12.117187 4.15625-2.535156 9.582031-1.226563 12.125 2.929687l27.566406 45.222657c1.664062 2.722656 1.722656 6.132812.164062 8.914062-1.5625 2.78125-4.503906 4.507813-7.691406 4.507813zm0 0"/><path d="m406.078125 139.5c-3.082031.003906-5.945313-1.601562-7.546875-4.234375l-27.570312-45.222656c-2.527344-4.164063-1.203126-9.585938 2.953124-12.121094 4.15625-2.53125 9.582032-1.222656 12.125 2.929687l27.570313 45.226563c1.660156 2.722656 1.722656 6.128906.160156 8.914063-1.558593 2.78125-4.5 4.503906-7.691406 4.507812zm0 0"/><path d="m423.714844 305.050781c-3.191406 0-6.128906-1.726562-7.691406-4.507812s-1.5-6.191407.160156-8.914063l27.570312-45.222656c1.636719-2.699219 4.59375-4.320312 7.753906-4.246094 3.15625.074219 6.03125 1.828125 7.546876 4.597656 1.511718 2.773438 1.425781 6.144532-.222657 8.835938l-27.570312 45.226562c-1.601563 2.632813-4.464844 4.234376-7.546875 4.230469zm0 0"/><path d="m401.101562 291.265625c-3.1875 0-6.128906-1.722656-7.691406-4.507813-1.558594-2.78125-1.5-6.1875.164063-8.914062l27.566406-45.222656c2.550781-4.136719 7.964844-5.4375 12.113281-2.90625 4.148438 2.527344 5.472656 7.933594 2.964844 12.097656l-27.570312 45.222656c-1.601563 2.632813-4.460938 4.238282-7.546876 4.230469zm0 0"/><path d="m378.492188 277.484375c-3.191407-.003906-6.132813-1.726563-7.691407-4.511719-1.5625-2.78125-1.5-6.1875.160157-8.914062l27.570312-45.222656c1.636719-2.699219 4.59375-4.320313 7.75-4.246094 3.160156.074218 6.035156 1.828125 7.546875 4.601562 1.515625 2.773438 1.429687 6.140625-.21875 8.835938l-27.570313 45.222656c-1.601562 2.632812-4.464843 4.238281-7.546874 4.234375zm0 0"/></g></svg>