<svg height="512pt" viewBox="0 -79 512 512" width="512pt" xmlns="http://www.w3.org/2000/svg"><path d="m512 17.605469v158.898437h-256l-250.5-171.601562c3.300781-3.199219 7.601562-5.0000002 12.199219-4.89843775h476.699219c9.703124 0 17.601562 7.89843775 17.601562 17.60156275zm0 0" fill="#285680"/><path d="m512 176.503906v158.898438c0 9.703125-7.898438 17.601562-17.699219 17.703125h-476.601562c-4.597657 0-8.898438-1.800781-12.199219-4.902344l250.5-171.699219zm0 0" fill="#c03a2b"/><path d="m256 176.503906-250.5 171.601563c-3.5-3.300781-5.5-7.902344-5.5-12.703125v-317.796875c0-4.800781 2-9.402344 5.5-12.703125zm0 0" fill="#e6e7e8"/><g fill="#f0c419"><path d="m123.601562 176.503906c0 19.496094-15.804687 35.300782-35.300781 35.300782-19.496093 0-35.300781-15.804688-35.300781-35.300782s15.804688-35.300781 35.300781-35.300781c19.496094 0 35.300781 15.804687 35.300781 35.300781zm0 0"/><path d="m88.300781 158.804688c-2.300781 0-4.601562-.902344-6.199219-2.601563-1.601562-1.699219-2.601562-3.898437-2.601562-6.199219v-35.300781c0-4.898437 4-8.800781 8.800781-8.800781 4.898438 0 8.800781 4 8.800781 8.800781v35.300781c0 2.300782-.902343 4.601563-2.601562 6.199219-1.601562 1.699219-3.898438 2.601563-6.199219 2.601563zm0 0"/><path d="m88.300781 247.105469c-2.300781 0-4.601562-.902344-6.199219-2.601563-1.601562-1.699218-2.601562-3.898437-2.601562-6.199218v-35.300782c0-4.898437 4-8.800781 8.800781-8.800781 4.898438 0 8.800781 4 8.800781 8.800781v35.300782c0 2.300781-.902343 4.597656-2.601562 6.199218-1.601562 1.699219-3.898438 2.601563-6.199219 2.601563zm0 0"/><path d="m69.601562 166.605469c-2.300781 0-4.601562-.902344-6.203124-2.601563l-25-25c-2.199219-2.199218-3.097657-5.5-2.296876-8.5.796876-3 3.199219-5.398437 6.199219-6.199218 3-.800782 6.300781.097656 8.5 2.300781l25 25c2.5 2.5 3.300781 6.296875 1.898438 9.597656-1.398438 3.300781-4.597657 5.402344-8.097657 5.402344zm0 0"/><path d="m132 229.003906c-2.300781 0-4.601562-.898437-6.199219-2.601562l-25-25c-2.199219-2.199219-3.101562-5.5-2.300781-8.5s3.199219-5.398438 6.199219-6.199219c3.101562-.800781 6.300781.101563 8.5 2.300781l25 25c2.5 2.5 3.300781 6.300782 1.902343 9.601563-1.300781 3.296875-4.601562 5.398437-8.101562 5.398437zm0 0"/><path d="m61.800781 185.304688h-35.300781c-4.898438 0-8.800781-4-8.800781-8.800782 0-4.800781 4-8.800781 8.800781-8.800781h35.300781c4.898438 0 8.800781 4 8.800781 8.800781 0 4.800782-3.902343 8.800782-8.800781 8.800782zm0 0"/><path d="m150.101562 185.304688h-35.300781c-4.902343 0-8.800781-4-8.800781-8.800782 0-4.800781 4-8.800781 8.800781-8.800781h35.300781c4.898438 0 8.796876 4 8.796876 8.800781 0 4.800782-4 8.800782-8.796876 8.800782zm0 0"/><path d="m44.601562 229.003906c-3.601562 0-6.800781-2.199218-8.203124-5.5-1.398438-3.300781-.597657-7.101562 1.902343-9.601562l25-25c3.398438-3.398438 9-3.398438 12.5 0 3.5 3.402344 3.398438 9 0 12.5l-25 25c-1.601562 1.703125-3.902343 2.601562-6.199219 2.601562zm0 0"/><path d="m107 166.605469c-3.601562 0-6.800781-2.203125-8.199219-5.402344-1.402343-3.199219-.601562-7.097656 1.898438-9.597656l25-25c2.199219-2.203125 5.5-3.101563 8.5-2.300781 3 .800781 5.402343 3.199218 6.199219 6.199218.800781 3.101563-.097657 6.300782-2.296876 8.5l-25 25c-1.5 1.699219-3.800781 2.601563-6.101562 2.601563zm0 0"/><path d="m36.199219 52.902344 5.800781 11.601562 12.800781 1.898438-9.300781 9.101562 2.199219 12.699219-11.5-6-11.5 6 2.199219-12.699219-9.199219-9.101562 12.800781-1.898438zm0 0"/><path d="m36.199219 264.804688 5.800781 11.597656 12.800781 1.902344-9.300781 9 2.199219 12.800781-11.5-6-11.5 6 2.199219-12.800781-9.199219-9 12.800781-1.902344zm0 0"/><path d="m193.300781 158.804688 5.699219 11.699218 12.898438 1.800782-9.296876 9.097656 2.199219 12.800781-11.5-6.097656-11.5 6.097656 2.199219-12.800781-9.300781-9.097656 12.902343-1.800782zm0 0"/></g></svg>